<svg width="1280" height="720" xmlns="http://www.w3.org/2000/svg" xmlns:xlink="http://www.w3.org/1999/xlink" overflow="hidden"><defs><filter id="fx0" x="-10%" y="-10%" width="120%" height="120%" filterUnits="userSpaceOnUse" primitiveUnits="userSpaceOnUse"><feComponentTransfer color-interpolation-filters="sRGB"><feFuncR type="discrete" tableValues="0.819608 0.819608"/><feFuncG type="discrete" tableValues="0.819608 0.819608"/><feFuncB type="discrete" tableValues="0.819608 0.819608"/><feFuncA type="linear" slope="0.501961" intercept="0"/></feComponentTransfer><feGaussianBlur stdDeviation="2.22222 2.22222"/></filter><filter id="fx1" x="-10%" y="-10%" width="120%" height="120%" filterUnits="userSpaceOnUse" primitiveUnits="userSpaceOnUse"><feComponentTransfer color-interpolation-filters="sRGB"><feFuncR type="discrete" tableValues="0.819608 0.819608"/><feFuncG type="discrete" tableValues="0.819608 0.819608"/><feFuncB type="discrete" tableValues="0.819608 0.819608"/><feFuncA type="linear" slope="0.501961" intercept="0"/></feComponentTransfer><feGaussianBlur stdDeviation="2.22222 2.22222"/></filter><filter id="fx2" x="-10%" y="-10%" width="120%" height="120%" filterUnits="userSpaceOnUse" primitiveUnits="userSpaceOnUse"><feComponentTransfer color-interpolation-filters="sRGB"><feFuncR type="discrete" tableValues="0.819608 0.819608"/><feFuncG type="discrete" tableValues="0.819608 0.819608"/><feFuncB type="discrete" tableValues="0.819608 0.819608"/><feFuncA type="linear" slope="0.501961" intercept="0"/></feComponentTransfer><feGaussianBlur stdDeviation="2.22222 2.22222"/></filter><filter id="fx3" x="-10%" y="-10%" width="120%" height="120%" filterUnits="userSpaceOnUse" primitiveUnits="userSpaceOnUse"><feComponentTransfer color-interpolation-filters="sRGB"><feFuncR type="discrete" tableValues="0.819608 0.819608"/><feFuncG type="discrete" tableValues="0.819608 0.819608"/><feFuncB type="discrete" tableValues="0.819608 0.819608"/><feFuncA type="linear" slope="0.501961" intercept="0"/></feComponentTransfer><feGaussianBlur stdDeviation="2.22222 2.22222"/></filter><filter id="fx4" x="-10%" y="-10%" width="120%" height="120%" filterUnits="userSpaceOnUse" primitiveUnits="userSpaceOnUse"><feComponentTransfer color-interpolation-filters="sRGB"><feFuncR type="discrete" tableValues="0.819608 0.819608"/><feFuncG type="discrete" tableValues="0.819608 0.819608"/><feFuncB type="discrete" tableValues="0.819608 0.819608"/><feFuncA type="linear" slope="0.501961" intercept="0"/></feComponentTransfer><feGaussianBlur stdDeviation="2.22222 2.22222"/></filter><filter id="fx5" x="-10%" y="-10%" width="120%" height="120%" filterUnits="userSpaceOnUse" primitiveUnits="userSpaceOnUse"><feComponentTransfer color-interpolation-filters="sRGB"><feFuncR type="discrete" tableValues="0.819608 0.819608"/><feFuncG type="discrete" tableValues="0.819608 0.819608"/><feFuncB type="discrete" tableValues="0.819608 0.819608"/><feFuncA type="linear" slope="0.501961" intercept="0"/></feComponentTransfer><feGaussianBlur stdDeviation="2.22222 2.22222"/></filter><clipPath id="clip6"><rect x="0" y="0" width="1280" height="720"/></clipPath><clipPath id="clip7"><path d="M1.90735e-05 1.11164e-05 989 1.11164e-05 989 111.624C989 125.087 999.913 136 1013.38 136L1280 136 1280 720 1.90735e-05 720Z" fill-rule="evenodd" clip-rule="evenodd"/></clipPath><clipPath id="clip8"><rect x="0" y="0" width="298" height="161"/></clipPath><linearGradient x1="1064.6" y1="179.876" x2="1204.4" y2="-69.8862" gradientUnits="userSpaceOnUse" spreadMethod="reflect" id="stroke9"><stop offset="0" stop-color="#F0F8FD"/><stop offset="0.28" stop-color="#F0F8FD"/><stop offset="0.85" stop-color="#AEAEAE"/><stop offset="1" stop-color="#AEAEAE"/></linearGradient><clipPath id="clip10"><path d="M30.2347 14C28.4482 14 27 15.4482 27 17.2347L27 117.765C27 119.552 28.4482 121 30.2347 121L945.765 121C947.552 121 949 119.552 949 117.765L949 17.2347C949 15.4482 947.552 14 945.765 14ZM1.90735e-05 1.07288e-05 1280 1.07288e-05 1280 720 1.90735e-05 720Z" fill-rule="evenodd" clip-rule="evenodd"/></clipPath><linearGradient x1="475.318" y1="-40.004" x2="500.682" y2="175.004" gradientUnits="userSpaceOnUse" spreadMethod="reflect" id="stroke11"><stop offset="0" stop-color="#F0F8FD"/><stop offset="0.28" stop-color="#F0F8FD"/><stop offset="0.85" stop-color="#AEAEAE"/><stop offset="1" stop-color="#AEAEAE"/></linearGradient><clipPath id="clip12"><path d="M21.6758 419C16.8843 419 13 422.884 13 427.676L13 697.324C13 702.116 16.8843 706 21.6758 706L606.324 706C611.116 706 615 702.116 615 697.324L615 427.676C615 422.884 611.116 419 606.324 419ZM1.90735e-05 1.07288e-05 1280 1.07288e-05 1280 720 1.90735e-05 720Z" fill-rule="evenodd" clip-rule="evenodd"/></clipPath><linearGradient x1="201.48" y1="327.338" x2="426.52" y2="797.662" gradientUnits="userSpaceOnUse" spreadMethod="reflect" id="stroke13"><stop offset="0" stop-color="#F0F8FD"/><stop offset="0.28" stop-color="#F0F8FD"/><stop offset="0.85" stop-color="#AEAEAE"/><stop offset="1" stop-color="#AEAEAE"/></linearGradient><clipPath id="clip14"><path d="M633.676 419C628.884 419 625 422.884 625 427.676L625 697.324C625 702.116 628.884 706 633.676 706L1258.32 706C1263.12 706 1267 702.116 1267 697.324L1267 427.676C1267 422.884 1263.12 419 1258.32 419ZM1.90735e-05 1.07288e-05 1280 1.07288e-05 1280 720 1.90735e-05 720Z" fill-rule="evenodd" clip-rule="evenodd"/></clipPath><linearGradient x1="838.049" y1="321.944" x2="1053.95" y2="803.056" gradientUnits="userSpaceOnUse" spreadMethod="reflect" id="stroke15"><stop offset="0" stop-color="#F0F8FD"/><stop offset="0.28" stop-color="#F0F8FD"/><stop offset="0.85" stop-color="#AEAEAE"/><stop offset="1" stop-color="#AEAEAE"/></linearGradient><clipPath id="clip16"><path d="M581.95 141C577.559 141 574 144.559 574 148.95L574 396.05C574 400.441 577.559 404 581.95 404L903.05 404C907.441 404 911 400.441 911 396.05L911 148.95C911 144.559 907.441 141 903.05 141ZM1.90735e-05 1.07288e-05 1280 1.07288e-05 1280 720 1.90735e-05 720Z" fill-rule="evenodd" clip-rule="evenodd"/></clipPath><linearGradient x1="613.919" y1="108.013" x2="871.081" y2="436.987" gradientUnits="userSpaceOnUse" spreadMethod="reflect" id="stroke17"><stop offset="0" stop-color="#F0F8FD"/><stop offset="0.28" stop-color="#F0F8FD"/><stop offset="0.85" stop-color="#AEAEAE"/><stop offset="1" stop-color="#AEAEAE"/></linearGradient><clipPath id="clip18"><path d="M925.951 141C921.56 141 918 144.56 918 148.951L918 396.049C918 400.44 921.56 404 925.951 404L1259.05 404C1263.44 404 1267 400.44 1267 396.049L1267 148.951C1267 144.56 1263.44 141 1259.05 141ZM1.90735e-05 1.07288e-05 1280 1.07288e-05 1280 720 1.90735e-05 720Z" fill-rule="evenodd" clip-rule="evenodd"/></clipPath><linearGradient x1="965.066" y1="103.711" x2="1219.93" y2="441.289" gradientUnits="userSpaceOnUse" spreadMethod="reflect" id="stroke19"><stop offset="0" stop-color="#F0F8FD"/><stop offset="0.28" stop-color="#F0F8FD"/><stop offset="0.85" stop-color="#AEAEAE"/><stop offset="1" stop-color="#AEAEAE"/></linearGradient></defs><g clip-path="url(#clip6)"><rect x="0" y="0" width="1280" height="720" fill="#FFFFFF"/><g clip-path="url(#clip7)"><g filter="url(#fx0)" transform="translate(989 -7)"><g clip-path="url(#clip8)"><path d="M9.42804 128.052 9.42804-9.58237 276.052-9.58237C289.514-9.58237 300.428 1.33116 300.428 14.7937L300.428 152.428 33.8041 152.428C20.3416 152.428 9.42804 141.515 9.42804 128.052Z" stroke="#FF0000" stroke-width="2" stroke-miterlimit="8" fill-rule="evenodd"/></g></g></g><path d="M989 111.624 989-26.0105 1255.62-26.0105C1269.09-26.0105 1280-15.0969 1280-1.63441L1280 136 1013.38 136C999.913 136 989 125.087 989 111.624Z" stroke="url(#stroke9)" stroke-width="2" stroke-miterlimit="8" fill-rule="evenodd"/><g clip-path="url(#clip10)"><g filter="url(#fx1)" transform="translate(27 14)"><g><path d="M9.42809 12.6628C9.42809 10.8763 10.8763 9.42809 12.6628 9.42809L928.193 9.42809C929.98 9.42809 931.428 10.8763 931.428 12.6628L931.428 113.193C931.428 114.98 929.98 116.428 928.193 116.428L12.6628 116.428C10.8763 116.428 9.42809 114.98 9.42809 113.193Z" stroke="#FF0000" stroke-width="2" stroke-miterlimit="8" fill="#FFFFFF" fill-rule="evenodd"/></g></g></g><path d="M27 17.2347C27 15.4482 28.4482 14 30.2347 14L945.765 14C947.552 14 949 15.4482 949 17.2347L949 117.765C949 119.552 947.552 121 945.765 121L30.2347 121C28.4482 121 27 119.552 27 117.765Z" stroke="url(#stroke11)" stroke-width="2" stroke-miterlimit="8" fill="#FFFFFF" fill-rule="evenodd"/><g clip-path="url(#clip12)"><g filter="url(#fx2)" transform="translate(13 419)"><g><path d="M9.42809 18.1039C9.42809 13.3124 13.3124 9.4281 18.1039 9.4281L602.752 9.4281C607.544 9.4281 611.428 13.3124 611.428 18.1039L611.428 287.752C611.428 292.544 607.544 296.428 602.752 296.428L18.1039 296.428C13.3124 296.428 9.42809 292.544 9.42809 287.752Z" stroke="#FF0000" stroke-width="2" stroke-miterlimit="8" fill="#FFFFFF" fill-rule="evenodd"/></g></g></g><path d="M13 427.676C13 422.884 16.8843 419 21.6758 419L606.324 419C611.116 419 615 422.884 615 427.676L615 697.324C615 702.116 611.116 706 606.324 706L21.6758 706C16.8843 706 13 702.116 13 697.324Z" stroke="url(#stroke13)" stroke-width="2" stroke-miterlimit="8" fill="#FFFFFF" fill-rule="evenodd"/><g clip-path="url(#clip14)"><g filter="url(#fx3)" transform="translate(625 419)"><g><path d="M9.4281 18.104C9.4281 13.3124 13.3124 9.4281 18.1039 9.4281L642.752 9.4281C647.544 9.4281 651.428 13.3124 651.428 18.104L651.428 287.752C651.428 292.544 647.544 296.428 642.752 296.428L18.1039 296.428C13.3124 296.428 9.4281 292.544 9.4281 287.752Z" stroke="#FF0000" stroke-width="2" stroke-miterlimit="8" fill="#FFFFFF" fill-rule="evenodd"/></g></g></g><path d="M625 427.676C625 422.884 628.884 419 633.676 419L1258.32 419C1263.12 419 1267 422.884 1267 427.676L1267 697.324C1267 702.116 1263.12 706 1258.32 706L633.676 706C628.884 706 625 702.116 625 697.324Z" stroke="url(#stroke15)" stroke-width="2" stroke-miterlimit="8" fill="#FFFFFF" fill-rule="evenodd"/><g clip-path="url(#clip16)"><g filter="url(#fx4)" transform="translate(574 141)"><g><path d="M9.4281 17.3784C9.4281 12.9876 12.9876 9.42809 17.3784 9.42809L338.478 9.42809C342.869 9.42809 346.428 12.9876 346.428 17.3784L346.428 264.478C346.428 268.869 342.869 272.428 338.478 272.428L17.3784 272.428C12.9876 272.428 9.4281 268.869 9.4281 264.478Z" stroke="#FF0000" stroke-width="2" stroke-miterlimit="8" fill="#FFFFFF" fill-rule="evenodd"/></g></g></g><path d="M574 148.95C574 144.559 577.559 141 581.95 141L903.05 141C907.441 141 911 144.559 911 148.95L911 396.05C911 400.441 907.441 404 903.05 404L581.95 404C577.559 404 574 400.441 574 396.05Z" stroke="url(#stroke17)" stroke-width="2" stroke-miterlimit="8" fill="#FFFFFF" fill-rule="evenodd"/><g clip-path="url(#clip18)"><g filter="url(#fx5)" transform="translate(918 141)"><g><path d="M9.4281 17.3787C9.4281 12.9877 12.9877 9.42809 17.3787 9.42809L350.478 9.42809C354.868 9.42809 358.428 12.9877 358.428 17.3787L358.428 264.477C358.428 268.868 354.868 272.428 350.478 272.428L17.3787 272.428C12.9877 272.428 9.4281 268.868 9.4281 264.477Z" stroke="#FF0000" stroke-width="2" stroke-miterlimit="8" fill="#FFFFFF" fill-rule="evenodd"/></g></g></g><path d="M918 148.951C918 144.56 921.56 141 925.951 141L1259.05 141C1263.44 141 1267 144.56 1267 148.951L1267 396.049C1267 400.44 1263.44 404 1259.05 404L925.951 404C921.56 404 918 400.44 918 396.049Z" stroke="url(#stroke19)" stroke-width="2" stroke-miterlimit="8" fill="#FFFFFF" fill-rule="evenodd"/></g></svg>